<svg width="182" height="25" viewBox="0 0 182 25" fill="none" xmlns="http://www.w3.org/2000/svg">
<path d="M8.28977 24.3089C6.56392 24.3089 5.0831 23.9538 3.8473 23.2436C2.61861 22.5334 1.67401 21.5462 1.01349 20.282C0.352983 19.0107 0.0227273 17.5405 0.0227273 15.8714C0.0227273 14.1953 0.352983 12.7251 1.01349 11.4609C1.68111 10.1896 2.62926 9.19886 3.85795 8.48864C5.09375 7.77841 6.56747 7.4233 8.27912 7.4233C9.7919 7.4233 11.1094 7.69673 12.2315 8.24361C13.3608 8.79048 14.2415 9.56463 14.8736 10.5661C15.5128 11.5604 15.8501 12.7287 15.8857 14.071H11.017C10.9176 13.233 10.6335 12.576 10.1648 12.1001C9.70313 11.6243 9.09943 11.3864 8.35369 11.3864C7.75 11.3864 7.22088 11.5568 6.76634 11.8977C6.31179 12.2315 5.95668 12.7287 5.70099 13.3892C5.45241 14.0426 5.32812 14.8523 5.32812 15.8182C5.32812 16.7841 5.45241 17.6009 5.70099 18.2685C5.95668 18.929 6.31179 19.4297 6.76634 19.7706C7.22088 20.1044 7.75 20.2713 8.35369 20.2713C8.83665 20.2713 9.26278 20.1683 9.6321 19.9624C10.0085 19.7564 10.3175 19.4545 10.5589 19.0568C10.8004 18.652 10.9531 18.1619 11.017 17.5866H15.8857C15.8359 18.9361 15.4986 20.1151 14.8736 21.1236C14.2557 22.1321 13.3857 22.9169 12.2635 23.478C11.1484 24.032 9.82386 24.3089 8.28977 24.3089ZM26.2008 24.3089C24.4892 24.3089 23.0119 23.9716 21.769 23.2969C20.5332 22.6151 19.5815 21.6456 18.9139 20.3885C18.2534 19.1243 17.9231 17.6222 17.9231 15.8821C17.9231 14.1918 18.2569 12.7145 18.9245 11.4503C19.5922 10.179 20.5332 9.19176 21.7477 8.48864C22.9622 7.77841 24.3933 7.4233 26.041 7.4233C27.2058 7.4233 28.2711 7.6044 29.237 7.96662C30.2029 8.32883 31.0375 8.86506 31.7406 9.57528C32.4437 10.2855 32.9906 11.1626 33.3812 12.2067C33.7718 13.2436 33.9672 14.4332 33.9672 15.7756V17.0753H19.7449V14.0497H29.1199C29.1127 13.4957 28.9814 13.0021 28.7257 12.5689C28.47 12.1357 28.1184 11.7983 27.671 11.5568C27.2306 11.3082 26.7228 11.1839 26.1476 11.1839C25.5652 11.1839 25.0431 11.3153 24.5815 11.5781C24.1199 11.8338 23.7541 12.1854 23.4842 12.6328C23.2143 13.0732 23.0723 13.5739 23.0581 14.1349V17.2138C23.0581 17.8814 23.1895 18.4673 23.4522 18.9716C23.715 19.4687 24.0879 19.8558 24.5708 20.1328C25.0538 20.4098 25.6291 20.5483 26.2967 20.5483C26.7583 20.5483 27.1774 20.4844 27.5538 20.3565C27.9302 20.2287 28.2534 20.0405 28.5233 19.7919C28.7931 19.5433 28.9956 19.2379 29.1305 18.8757L33.9139 19.0142C33.715 20.0866 33.2782 21.0206 32.6035 21.8161C31.9359 22.6044 31.0588 23.2187 29.9721 23.6591C28.8855 24.0923 27.6284 24.3089 26.2008 24.3089ZM40.8253 7.63636L43.5206 13.027L46.3118 7.63636H51.5639L46.9936 15.8182L51.7344 24H46.5249L43.5206 18.5668L40.5909 24H35.3068L40.0582 15.8182L35.5412 7.63636H40.8253ZM60.9949 24.3089C59.2761 24.3089 57.7988 23.9574 56.563 23.2543C55.3343 22.544 54.3862 21.5568 53.7186 20.2926C53.0581 19.0213 52.7278 17.5476 52.7278 15.8714C52.7278 14.1882 53.0581 12.7145 53.7186 11.4503C54.3862 10.179 55.3343 9.19176 56.563 8.48864C57.7988 7.77841 59.2761 7.4233 60.9949 7.4233C62.7136 7.4233 64.1873 7.77841 65.416 8.48864C66.6518 9.19176 67.6 10.179 68.2605 11.4503C68.9281 12.7145 69.2619 14.1882 69.2619 15.8714C69.2619 17.5476 68.9281 19.0213 68.2605 20.2926C67.6 21.5568 66.6518 22.544 65.416 23.2543C64.1873 23.9574 62.7136 24.3089 60.9949 24.3089ZM61.0268 20.3778C61.6518 20.3778 62.1809 20.1861 62.6142 19.8026C63.0474 19.419 63.3777 18.8864 63.6049 18.2045C63.8393 17.5227 63.9565 16.7344 63.9565 15.8395C63.9565 14.9304 63.8393 14.1349 63.6049 13.4531C63.3777 12.7713 63.0474 12.2386 62.6142 11.8551C62.1809 11.4716 61.6518 11.2798 61.0268 11.2798C60.3805 11.2798 59.8336 11.4716 59.3862 11.8551C58.9458 12.2386 58.6085 12.7713 58.3741 13.4531C58.1468 14.1349 58.0332 14.9304 58.0332 15.8395C58.0332 16.7344 58.1468 17.5227 58.3741 18.2045C58.6085 18.8864 58.9458 19.419 59.3862 19.8026C59.8336 20.1861 60.3805 20.3778 61.0268 20.3778Z" fill="#0075FF"/>
<path d="M86.2168 12.6328L81.4334 12.7607C81.3837 12.4197 81.2488 12.1179 81.0286 11.8551C80.8084 11.5852 80.5208 11.3757 80.1657 11.2266C79.8176 11.0703 79.4128 10.9922 78.9512 10.9922C78.3475 10.9922 77.8326 11.1129 77.4064 11.3544C76.9874 11.5959 76.7814 11.9226 76.7885 12.3345C76.7814 12.6541 76.9093 12.9311 77.1721 13.1655C77.4419 13.3999 77.9213 13.5881 78.6103 13.7301L81.7637 14.3267C83.3972 14.6392 84.6117 15.1577 85.4071 15.8821C86.2097 16.6065 86.6145 17.5653 86.6216 18.7585C86.6145 19.8807 86.2807 20.8572 85.6202 21.6882C84.9668 22.5192 84.0719 23.1655 82.9355 23.6271C81.7992 24.0817 80.4995 24.3089 79.0364 24.3089C76.6998 24.3089 74.8567 23.8295 73.5073 22.8707C72.165 21.9048 71.3979 20.6122 71.2061 18.9929L76.3517 18.8651C76.4654 19.4616 76.7601 19.9162 77.236 20.2287C77.7118 20.5412 78.3191 20.6974 79.0577 20.6974C79.7253 20.6974 80.2686 20.5732 80.6877 20.3246C81.1067 20.076 81.3198 19.7457 81.3269 19.3338C81.3198 18.9645 81.1564 18.6697 80.8368 18.4496C80.5172 18.2223 80.0165 18.0447 79.3347 17.9169L76.4796 17.3736C74.839 17.0753 73.6174 16.5249 72.8148 15.7223C72.0123 14.9126 71.6145 13.8828 71.6216 12.6328C71.6145 11.5391 71.9057 10.6051 72.4952 9.83097C73.0847 9.04972 73.9228 8.45313 75.0094 8.04119C76.0961 7.62926 77.378 7.4233 78.8553 7.4233C81.0712 7.4233 82.8184 7.88849 84.0968 8.81889C85.3752 9.74219 86.0819 11.0135 86.2168 12.6328ZM98.4229 7.63636V11.4716H88.0998V7.63636H98.4229ZM90.2624 3.71591H95.4719V18.8544C95.4719 19.174 95.5217 19.4332 95.6211 19.6321C95.7276 19.8239 95.8803 19.9624 96.0792 20.0476C96.2781 20.1257 96.516 20.1648 96.793 20.1648C96.9918 20.1648 97.2013 20.147 97.4215 20.1115C97.6488 20.0689 97.8192 20.0334 97.9329 20.005L98.7212 23.7656C98.4727 23.8366 98.1211 23.9254 97.6665 24.032C97.2191 24.1385 96.6829 24.206 96.0579 24.2344C94.8363 24.2912 93.7887 24.1491 92.9151 23.8082C92.0487 23.4602 91.3846 22.9205 90.9229 22.1889C90.4684 21.4574 90.2482 20.5376 90.2624 19.4297V3.71591ZM111.638 16.9368V7.63636H116.837V24H111.873V20.9531H111.702C111.34 21.9545 110.722 22.75 109.849 23.3395C108.982 23.9219 107.935 24.2131 106.706 24.2131C105.591 24.2131 104.611 23.9574 103.766 23.446C102.92 22.9347 102.263 22.2209 101.795 21.3047C101.326 20.3814 101.088 19.3018 101.081 18.0661V7.63636H106.29V17.0433C106.298 17.9311 106.532 18.6307 106.994 19.142C107.455 19.6534 108.084 19.9091 108.879 19.9091C109.398 19.9091 109.863 19.7955 110.275 19.5682C110.694 19.3338 111.024 18.9964 111.266 18.5561C111.514 18.1087 111.638 17.5689 111.638 16.9368ZM126.13 24.2344C124.922 24.2344 123.825 23.9219 122.838 23.2969C121.851 22.6719 121.062 21.7344 120.473 20.4844C119.883 19.2344 119.589 17.6825 119.589 15.8288C119.589 13.9041 119.894 12.3203 120.505 11.0774C121.116 9.83452 121.915 8.91477 122.902 8.31818C123.896 7.72159 124.965 7.4233 126.108 7.4233C126.968 7.4233 127.703 7.57244 128.314 7.87074C128.925 8.16193 129.429 8.53835 129.827 9C130.224 9.46165 130.526 9.94105 130.732 10.4382H130.839V2.18182H136.048V24H130.892V21.3473H130.732C130.512 21.8516 130.199 22.3239 129.795 22.7642C129.39 23.2045 128.882 23.5597 128.271 23.8295C127.667 24.0994 126.954 24.2344 126.13 24.2344ZM127.941 20.1754C128.573 20.1754 129.113 19.9979 129.56 19.6428C130.008 19.2805 130.352 18.7727 130.594 18.1193C130.835 17.4659 130.956 16.6989 130.956 15.8182C130.956 14.9233 130.835 14.1527 130.594 13.5064C130.359 12.8601 130.015 12.3629 129.56 12.0149C129.113 11.6669 128.573 11.4929 127.941 11.4929C127.295 11.4929 126.748 11.6705 126.3 12.0256C125.853 12.3807 125.512 12.8814 125.278 13.5277C125.05 14.174 124.937 14.9375 124.937 15.8182C124.937 16.6989 125.054 17.4659 125.288 18.1193C125.523 18.7727 125.86 19.2805 126.3 19.6428C126.748 19.9979 127.295 20.1754 127.941 20.1754ZM139.343 24V7.63636H144.552V24H139.343ZM141.953 5.7294C141.221 5.7294 140.593 5.48793 140.067 5.00497C139.542 4.51491 139.279 3.92543 139.279 3.23651C139.279 2.55469 139.542 1.9723 140.067 1.48935C140.593 0.999289 141.221 0.75426 141.953 0.75426C142.691 0.75426 143.32 0.999289 143.838 1.48935C144.364 1.9723 144.627 2.55469 144.627 3.23651C144.627 3.92543 144.364 4.51491 143.838 5.00497C143.32 5.48793 142.691 5.7294 141.953 5.7294ZM155.507 24.3089C153.788 24.3089 152.311 23.9574 151.075 23.2543C149.846 22.544 148.898 21.5568 148.23 20.2926C147.57 19.0213 147.24 17.5476 147.24 15.8714C147.24 14.1882 147.57 12.7145 148.23 11.4503C148.898 10.179 149.846 9.19176 151.075 8.48864C152.311 7.77841 153.788 7.4233 155.507 7.4233C157.225 7.4233 158.699 7.77841 159.928 8.48864C161.164 9.19176 162.112 10.179 162.772 11.4503C163.44 12.7145 163.774 14.1882 163.774 15.8714C163.774 17.5476 163.44 19.0213 162.772 20.2926C162.112 21.5568 161.164 22.544 159.928 23.2543C158.699 23.9574 157.225 24.3089 155.507 24.3089ZM155.539 20.3778C156.164 20.3778 156.693 20.1861 157.126 19.8026C157.559 19.419 157.889 18.8864 158.117 18.2045C158.351 17.5227 158.468 16.7344 158.468 15.8395C158.468 14.9304 158.351 14.1349 158.117 13.4531C157.889 12.7713 157.559 12.2386 157.126 11.8551C156.693 11.4716 156.164 11.2798 155.539 11.2798C154.892 11.2798 154.345 11.4716 153.898 11.8551C153.458 12.2386 153.12 12.7713 152.886 13.4531C152.659 14.1349 152.545 14.9304 152.545 15.8395C152.545 16.7344 152.659 17.5227 152.886 18.2045C153.12 18.8864 153.458 19.419 153.898 19.8026C154.345 20.1861 154.892 20.3778 155.539 20.3778ZM180.729 12.6328L175.945 12.7607C175.895 12.4197 175.76 12.1179 175.54 11.8551C175.32 11.5852 175.032 11.3757 174.677 11.2266C174.329 11.0703 173.925 10.9922 173.463 10.9922C172.859 10.9922 172.344 11.1129 171.918 11.3544C171.499 11.5959 171.293 11.9226 171.3 12.3345C171.293 12.6541 171.421 12.9311 171.684 13.1655C171.954 13.3999 172.433 13.5881 173.122 13.7301L176.275 14.3267C177.909 14.6392 179.123 15.1577 179.919 15.8821C180.721 16.6065 181.126 17.5653 181.133 18.7585C181.126 19.8807 180.792 20.8572 180.132 21.6882C179.479 22.5192 178.584 23.1655 177.447 23.6271C176.311 24.0817 175.011 24.3089 173.548 24.3089C171.211 24.3089 169.368 23.8295 168.019 22.8707C166.677 21.9048 165.91 20.6122 165.718 18.9929L170.863 18.8651C170.977 19.4616 171.272 19.9162 171.748 20.2287C172.224 20.5412 172.831 20.6974 173.569 20.6974C174.237 20.6974 174.78 20.5732 175.199 20.3246C175.618 20.076 175.831 19.7457 175.839 19.3338C175.831 18.9645 175.668 18.6697 175.349 18.4496C175.029 18.2223 174.528 18.0447 173.846 17.9169L170.991 17.3736C169.351 17.0753 168.129 16.5249 167.327 15.7223C166.524 14.9126 166.126 13.8828 166.133 12.6328C166.126 11.5391 166.417 10.6051 167.007 9.83097C167.596 9.04972 168.434 8.45313 169.521 8.04119C170.608 7.62926 171.89 7.4233 173.367 7.4233C175.583 7.4233 177.33 7.88849 178.608 8.81889C179.887 9.74219 180.594 11.0135 180.729 12.6328Z" fill="white"/>
</svg>
